<svg id="visual" viewBox="0 0 1920 1080" width="1920" height="1080" xmlns="http://www.w3.org/2000/svg" xmlns:xlink="http://www.w3.org/1999/xlink" version="1.1"><g stroke-width="1" stroke-linejoin="bevel"><path d="M968 548L965 455L912 496Z" fill="#865db3" stroke="#865db3"></path><path d="M912 496L869 542L968 548Z" fill="#2c0363" stroke="#2c0363"></path><path d="M965 455L904 377L912 496Z" fill="#684097" stroke="#684097"></path><path d="M912 496L806 531L869 542Z" fill="#865db3" stroke="#865db3"></path><path d="M965 654L1055 601L968 548Z" fill="#7c53a9" stroke="#7c53a9"></path><path d="M968 548L1091 545L965 455Z" fill="#4a237d" stroke="#4a237d"></path><path d="M1055 601L1091 545L968 548Z" fill="#5e368e" stroke="#5e368e"></path><path d="M965 455L996 338L904 377Z" fill="#7c53a9" stroke="#7c53a9"></path><path d="M1091 545L1085 443L965 455Z" fill="#4a237d" stroke="#4a237d"></path><path d="M881 660L965 654L968 548Z" fill="#5e368e" stroke="#5e368e"></path><path d="M780 407L806 531L912 496Z" fill="#401974" stroke="#401974"></path><path d="M869 542L881 660L968 548Z" fill="#360e6b" stroke="#360e6b"></path><path d="M1085 443L996 338L965 455Z" fill="#684097" stroke="#684097"></path><path d="M1210 626L1127 530L1091 545Z" fill="#684097" stroke="#684097"></path><path d="M1091 545L1127 530L1085 443Z" fill="#401974" stroke="#401974"></path><path d="M806 531L881 660L869 542Z" fill="#5e368e" stroke="#5e368e"></path><path d="M914 786L996 679L965 654Z" fill="#865db3" stroke="#865db3"></path><path d="M965 654L996 679L1055 601Z" fill="#684097" stroke="#684097"></path><path d="M1210 626L1172 493L1127 530Z" fill="#684097" stroke="#684097"></path><path d="M1151 339L1078 348L1085 443Z" fill="#4a237d" stroke="#4a237d"></path><path d="M1085 443L1078 348L996 338Z" fill="#2c0363" stroke="#2c0363"></path><path d="M767 276L780 407L904 377Z" fill="#360e6b" stroke="#360e6b"></path><path d="M904 377L780 407L912 496Z" fill="#542c85" stroke="#542c85"></path><path d="M1220 492L1172 493L1210 626Z" fill="#7249a0" stroke="#7249a0"></path><path d="M1127 530L1172 493L1085 443Z" fill="#401974" stroke="#401974"></path><path d="M780 407L729 478L806 531Z" fill="#865db3" stroke="#865db3"></path><path d="M806 531L732 595L881 660Z" fill="#7249a0" stroke="#7249a0"></path><path d="M1078 348L1020 275L996 338Z" fill="#7c53a9" stroke="#7c53a9"></path><path d="M996 338L945 267L904 377Z" fill="#542c85" stroke="#542c85"></path><path d="M1020 275L945 267L996 338Z" fill="#542c85" stroke="#542c85"></path><path d="M729 478L732 595L806 531Z" fill="#2c0363" stroke="#2c0363"></path><path d="M1172 493L1151 339L1085 443Z" fill="#360e6b" stroke="#360e6b"></path><path d="M1078 348L1104 265L1020 275Z" fill="#542c85" stroke="#542c85"></path><path d="M1210 626L1091 545L1200 652Z" fill="#5e368e" stroke="#5e368e"></path><path d="M1172 493L1220 492L1151 339Z" fill="#401974" stroke="#401974"></path><path d="M639 430L697 492L729 478Z" fill="#5e368e" stroke="#5e368e"></path><path d="M729 478L697 492L732 595Z" fill="#360e6b" stroke="#360e6b"></path><path d="M732 595L812 729L881 660Z" fill="#360e6b" stroke="#360e6b"></path><path d="M881 660L914 786L965 654Z" fill="#865db3" stroke="#865db3"></path><path d="M812 729L852 755L881 660Z" fill="#360e6b" stroke="#360e6b"></path><path d="M1151 339L1104 265L1078 348Z" fill="#865db3" stroke="#865db3"></path><path d="M878 188L881 225L945 267Z" fill="#684097" stroke="#684097"></path><path d="M1048 767L1150 705L996 679Z" fill="#5e368e" stroke="#5e368e"></path><path d="M996 679L1150 705L1055 601Z" fill="#401974" stroke="#401974"></path><path d="M914 786L1048 767L996 679Z" fill="#7249a0" stroke="#7249a0"></path><path d="M1200 652L1091 545L1055 601Z" fill="#2c0363" stroke="#2c0363"></path><path d="M1150 705L1200 652L1055 601Z" fill="#7c53a9" stroke="#7c53a9"></path><path d="M878 188L945 267L1001 132Z" fill="#542c85" stroke="#542c85"></path><path d="M945 267L881 225L904 377Z" fill="#4a237d" stroke="#4a237d"></path><path d="M651 369L639 430L729 478Z" fill="#684097" stroke="#684097"></path><path d="M852 755L914 786L881 660Z" fill="#5e368e" stroke="#5e368e"></path><path d="M881 225L767 276L904 377Z" fill="#4a237d" stroke="#4a237d"></path><path d="M852 755L888 790L914 786Z" fill="#5e368e" stroke="#5e368e"></path><path d="M914 786L1074 801L1048 767Z" fill="#865db3" stroke="#865db3"></path><path d="M731 872L888 790L852 755Z" fill="#7c53a9" stroke="#7c53a9"></path><path d="M619 622L674 640L732 595Z" fill="#360e6b" stroke="#360e6b"></path><path d="M732 595L674 640L812 729Z" fill="#684097" stroke="#684097"></path><path d="M812 729L743 762L852 755Z" fill="#542c85" stroke="#542c85"></path><path d="M1093 901L1074 801L955 932Z" fill="#5e368e" stroke="#5e368e"></path><path d="M1048 767L1074 801L1150 705Z" fill="#542c85" stroke="#542c85"></path><path d="M1150 705L1250 763L1200 652Z" fill="#5e368e" stroke="#5e368e"></path><path d="M1001 132L945 267L1020 275Z" fill="#4a237d" stroke="#4a237d"></path><path d="M881 225L756 163L767 276Z" fill="#9067bc" stroke="#9067bc"></path><path d="M651 369L729 478L780 407Z" fill="#9067bc" stroke="#9067bc"></path><path d="M697 492L619 622L732 595Z" fill="#4a237d" stroke="#4a237d"></path><path d="M767 276L651 369L780 407Z" fill="#542c85" stroke="#542c85"></path><path d="M674 640L743 762L812 729Z" fill="#401974" stroke="#401974"></path><path d="M1074 801L1166 771L1150 705Z" fill="#7c53a9" stroke="#7c53a9"></path><path d="M1295 619L1297 572L1210 626Z" fill="#401974" stroke="#401974"></path><path d="M1295 619L1210 626L1200 652Z" fill="#2c0363" stroke="#2c0363"></path><path d="M1210 626L1297 572L1220 492Z" fill="#7249a0" stroke="#7249a0"></path><path d="M1297 373L1216 268L1151 339Z" fill="#7c53a9" stroke="#7c53a9"></path><path d="M1302 400L1151 339L1220 492Z" fill="#4a237d" stroke="#4a237d"></path><path d="M1151 339L1216 268L1104 265Z" fill="#4a237d" stroke="#4a237d"></path><path d="M1104 265L1065 167L1020 275Z" fill="#360e6b" stroke="#360e6b"></path><path d="M1147 193L1065 167L1104 265Z" fill="#7c53a9" stroke="#7c53a9"></path><path d="M1250 763L1295 619L1200 652Z" fill="#865db3" stroke="#865db3"></path><path d="M1340 550L1302 400L1220 492Z" fill="#542c85" stroke="#542c85"></path><path d="M554 529L619 622L697 492Z" fill="#542c85" stroke="#542c85"></path><path d="M674 640L702 763L743 762Z" fill="#7c53a9" stroke="#7c53a9"></path><path d="M1200 210L1147 193L1104 265Z" fill="#542c85" stroke="#542c85"></path><path d="M1302 400L1297 373L1151 339Z" fill="#542c85" stroke="#542c85"></path><path d="M537 750L702 763L674 640Z" fill="#7c53a9" stroke="#7c53a9"></path><path d="M864 934L955 932L888 790Z" fill="#401974" stroke="#401974"></path><path d="M1073 113L1001 132L1065 167Z" fill="#5e368e" stroke="#5e368e"></path><path d="M1065 167L1001 132L1020 275Z" fill="#401974" stroke="#401974"></path><path d="M1318 256L1200 210L1216 268Z" fill="#360e6b" stroke="#360e6b"></path><path d="M1216 268L1200 210L1104 265Z" fill="#401974" stroke="#401974"></path><path d="M1147 193L1073 113L1065 167Z" fill="#2c0363" stroke="#2c0363"></path><path d="M651 369L592 394L639 430Z" fill="#542c85" stroke="#542c85"></path><path d="M639 430L554 529L697 492Z" fill="#360e6b" stroke="#360e6b"></path><path d="M579 270L592 394L651 369Z" fill="#865db3" stroke="#865db3"></path><path d="M680 234L651 369L767 276Z" fill="#542c85" stroke="#542c85"></path><path d="M1295 619L1340 550L1297 572Z" fill="#7c53a9" stroke="#7c53a9"></path><path d="M1297 572L1340 550L1220 492Z" fill="#9067bc" stroke="#9067bc"></path><path d="M1302 400L1412 412L1297 373Z" fill="#4a237d" stroke="#4a237d"></path><path d="M756 163L881 225L878 188Z" fill="#4a237d" stroke="#4a237d"></path><path d="M756 163L680 234L767 276Z" fill="#9067bc" stroke="#9067bc"></path><path d="M1198 835L1250 763L1166 771Z" fill="#865db3" stroke="#865db3"></path><path d="M1166 771L1250 763L1150 705Z" fill="#360e6b" stroke="#360e6b"></path><path d="M1448 596L1428 553L1340 550Z" fill="#9067bc" stroke="#9067bc"></path><path d="M800 135L756 163L878 188Z" fill="#9067bc" stroke="#9067bc"></path><path d="M818 93L800 135L878 188Z" fill="#5e368e" stroke="#5e368e"></path><path d="M1188 40L1073 113L1147 193Z" fill="#360e6b" stroke="#360e6b"></path><path d="M1001 132L994 88L878 188Z" fill="#7c53a9" stroke="#7c53a9"></path><path d="M547 489L554 529L639 430Z" fill="#684097" stroke="#684097"></path><path d="M633 840L731 872L702 763Z" fill="#7c53a9" stroke="#7c53a9"></path><path d="M1074 801L1198 835L1166 771Z" fill="#7249a0" stroke="#7249a0"></path><path d="M1093 901L1198 835L1074 801Z" fill="#865db3" stroke="#865db3"></path><path d="M592 394L547 489L639 430Z" fill="#9067bc" stroke="#9067bc"></path><path d="M1073 113L994 88L1001 132Z" fill="#7c53a9" stroke="#7c53a9"></path><path d="M955 932L914 786L888 790Z" fill="#5e368e" stroke="#5e368e"></path><path d="M955 932L1074 801L914 786Z" fill="#4a237d" stroke="#4a237d"></path><path d="M1428 553L1384 490L1340 550Z" fill="#7c53a9" stroke="#7c53a9"></path><path d="M1340 550L1384 490L1302 400Z" fill="#2c0363" stroke="#2c0363"></path><path d="M1297 373L1318 256L1216 268Z" fill="#9067bc" stroke="#9067bc"></path><path d="M731 872L852 755L743 762Z" fill="#2c0363" stroke="#2c0363"></path><path d="M994 88L818 93L878 188Z" fill="#2c0363" stroke="#2c0363"></path><path d="M800 135L818 93L756 163Z" fill="#7249a0" stroke="#7249a0"></path><path d="M756 163L647 190L680 234Z" fill="#5e368e" stroke="#5e368e"></path><path d="M633 840L702 763L537 750Z" fill="#7c53a9" stroke="#7c53a9"></path><path d="M702 763L731 872L743 762Z" fill="#2c0363" stroke="#2c0363"></path><path d="M1457 368L1318 256L1297 373Z" fill="#542c85" stroke="#542c85"></path><path d="M1247 72L1188 40L1147 193Z" fill="#2c0363" stroke="#2c0363"></path><path d="M616 83L647 190L756 163Z" fill="#2c0363" stroke="#2c0363"></path><path d="M680 234L579 270L651 369Z" fill="#684097" stroke="#684097"></path><path d="M592 394L486 409L547 489Z" fill="#4a237d" stroke="#4a237d"></path><path d="M731 872L864 934L888 790Z" fill="#684097" stroke="#684097"></path><path d="M647 190L579 270L680 234Z" fill="#684097" stroke="#684097"></path><path d="M1198 835L1321 766L1250 763Z" fill="#401974" stroke="#401974"></path><path d="M1250 763L1321 766L1295 619Z" fill="#360e6b" stroke="#360e6b"></path><path d="M1266 959L1321 766L1198 835Z" fill="#542c85" stroke="#542c85"></path><path d="M1154 992L1149 916L1093 901Z" fill="#7249a0" stroke="#7249a0"></path><path d="M1093 901L1149 916L1198 835Z" fill="#401974" stroke="#401974"></path><path d="M1503 495L1412 412L1384 490Z" fill="#5e368e" stroke="#5e368e"></path><path d="M1384 490L1412 412L1302 400Z" fill="#9067bc" stroke="#9067bc"></path><path d="M852 1008L989 970L955 932Z" fill="#542c85" stroke="#542c85"></path><path d="M955 932L989 970L1093 901Z" fill="#865db3" stroke="#865db3"></path><path d="M537 750L674 640L619 622Z" fill="#4a237d" stroke="#4a237d"></path><path d="M745 1029L852 1008L864 934Z" fill="#865db3" stroke="#865db3"></path><path d="M1423 239L1334 218L1318 256Z" fill="#684097" stroke="#684097"></path><path d="M1318 256L1334 218L1200 210Z" fill="#9067bc" stroke="#9067bc"></path><path d="M1448 596L1340 550L1295 619Z" fill="#360e6b" stroke="#360e6b"></path><path d="M579 270L486 409L592 394Z" fill="#9067bc" stroke="#9067bc"></path><path d="M547 489L472 526L554 529Z" fill="#401974" stroke="#401974"></path><path d="M554 529L485 632L619 622Z" fill="#360e6b" stroke="#360e6b"></path><path d="M1154 992L1205 920L1149 916Z" fill="#360e6b" stroke="#360e6b"></path><path d="M1149 916L1205 920L1198 835Z" fill="#4a237d" stroke="#4a237d"></path><path d="M457 485L472 526L547 489Z" fill="#865db3" stroke="#865db3"></path><path d="M497 709L537 750L619 622Z" fill="#4a237d" stroke="#4a237d"></path><path d="M472 526L485 632L554 529Z" fill="#7249a0" stroke="#7249a0"></path><path d="M543 887L653 889L633 840Z" fill="#360e6b" stroke="#360e6b"></path><path d="M633 840L653 889L731 872Z" fill="#9067bc" stroke="#9067bc"></path><path d="M864 934L852 1008L955 932Z" fill="#684097" stroke="#684097"></path><path d="M1321 766L1448 596L1295 619Z" fill="#401974" stroke="#401974"></path><path d="M1503 495L1457 368L1412 412Z" fill="#401974" stroke="#401974"></path><path d="M486 409L457 485L547 489Z" fill="#684097" stroke="#684097"></path><path d="M472 526L431 570L485 632Z" fill="#542c85" stroke="#542c85"></path><path d="M994 88L891 0L818 93Z" fill="#865db3" stroke="#865db3"></path><path d="M652 47L616 83L756 163Z" fill="#684097" stroke="#684097"></path><path d="M1092 0L922 0L994 88Z" fill="#360e6b" stroke="#360e6b"></path><path d="M1092 0L994 88L1073 113Z" fill="#4a237d" stroke="#4a237d"></path><path d="M485 632L497 709L619 622Z" fill="#4a237d" stroke="#4a237d"></path><path d="M537 750L535 814L633 840Z" fill="#684097" stroke="#684097"></path><path d="M428 638L497 709L485 632Z" fill="#7c53a9" stroke="#7c53a9"></path><path d="M922 0L891 0L994 88Z" fill="#7249a0" stroke="#7249a0"></path><path d="M647 190L537 206L579 270Z" fill="#4a237d" stroke="#4a237d"></path><path d="M579 270L498 254L486 409Z" fill="#5e368e" stroke="#5e368e"></path><path d="M486 409L378 438L457 485Z" fill="#684097" stroke="#684097"></path><path d="M616 83L537 206L647 190Z" fill="#865db3" stroke="#865db3"></path><path d="M1247 72L1147 193L1200 210Z" fill="#684097" stroke="#684097"></path><path d="M1503 495L1384 490L1428 553Z" fill="#360e6b" stroke="#360e6b"></path><path d="M1412 412L1457 368L1297 373Z" fill="#2c0363" stroke="#2c0363"></path><path d="M1397 891L1382 799L1321 766Z" fill="#542c85" stroke="#542c85"></path><path d="M1321 766L1395 795L1448 596Z" fill="#5e368e" stroke="#5e368e"></path><path d="M745 1029L864 934L731 872Z" fill="#4a237d" stroke="#4a237d"></path><path d="M989 970L1067 1012L1093 901Z" fill="#7c53a9" stroke="#7c53a9"></path><path d="M1336 105L1247 72L1200 210Z" fill="#7249a0" stroke="#7249a0"></path><path d="M1336 105L1200 210L1334 218Z" fill="#2c0363" stroke="#2c0363"></path><path d="M1188 40L1092 0L1073 113Z" fill="#542c85" stroke="#542c85"></path><path d="M1005 1080L1067 1012L989 970Z" fill="#4a237d" stroke="#4a237d"></path><path d="M537 206L498 254L579 270Z" fill="#5e368e" stroke="#5e368e"></path><path d="M1397 891L1395 795L1382 799Z" fill="#9067bc" stroke="#9067bc"></path><path d="M1382 799L1395 795L1321 766Z" fill="#5e368e" stroke="#5e368e"></path><path d="M1266 959L1198 835L1205 920Z" fill="#684097" stroke="#684097"></path><path d="M437 827L535 814L537 750Z" fill="#684097" stroke="#684097"></path><path d="M1067 1012L1154 992L1093 901Z" fill="#5e368e" stroke="#5e368e"></path><path d="M378 438L431 570L457 485Z" fill="#865db3" stroke="#865db3"></path><path d="M457 485L431 570L472 526Z" fill="#7c53a9" stroke="#7c53a9"></path><path d="M497 709L437 827L537 750Z" fill="#9067bc" stroke="#9067bc"></path><path d="M1457 368L1423 239L1318 256Z" fill="#9067bc" stroke="#9067bc"></path><path d="M755 0L756 163L818 93Z" fill="#2c0363" stroke="#2c0363"></path><path d="M537 206L481 152L498 254Z" fill="#360e6b" stroke="#360e6b"></path><path d="M891 0L755 0L818 93Z" fill="#4a237d" stroke="#4a237d"></path><path d="M1565 591L1503 495L1448 596Z" fill="#7c53a9" stroke="#7c53a9"></path><path d="M1448 596L1503 495L1428 553Z" fill="#2c0363" stroke="#2c0363"></path><path d="M1493 153L1422 199L1423 239Z" fill="#865db3" stroke="#865db3"></path><path d="M1422 199L1336 105L1334 218Z" fill="#360e6b" stroke="#360e6b"></path><path d="M1203 0L1192 0L1188 40Z" fill="#4a237d" stroke="#4a237d"></path><path d="M431 570L428 638L485 632Z" fill="#542c85" stroke="#542c85"></path><path d="M755 0L652 47L756 163Z" fill="#542c85" stroke="#542c85"></path><path d="M1154 992L1266 959L1205 920Z" fill="#542c85" stroke="#542c85"></path><path d="M1203 0L1188 40L1247 72Z" fill="#9067bc" stroke="#9067bc"></path><path d="M1188 40L1192 0L1092 0Z" fill="#9067bc" stroke="#9067bc"></path><path d="M1423 239L1422 199L1334 218Z" fill="#5e368e" stroke="#5e368e"></path><path d="M1547 267L1423 239L1457 368Z" fill="#542c85" stroke="#542c85"></path><path d="M1380 0L1203 0L1247 72Z" fill="#5e368e" stroke="#5e368e"></path><path d="M535 814L543 887L633 840Z" fill="#542c85" stroke="#542c85"></path><path d="M653 889L745 1029L731 872Z" fill="#865db3" stroke="#865db3"></path><path d="M437 827L543 887L535 814Z" fill="#5e368e" stroke="#5e368e"></path><path d="M626 1014L745 1029L653 889Z" fill="#542c85" stroke="#542c85"></path><path d="M852 1008L1005 1080L989 970Z" fill="#4a237d" stroke="#4a237d"></path><path d="M755 0L673 0L652 47Z" fill="#2c0363" stroke="#2c0363"></path><path d="M652 47L587 0L616 83Z" fill="#5e368e" stroke="#5e368e"></path><path d="M356 270L398 364L498 254Z" fill="#7c53a9" stroke="#7c53a9"></path><path d="M481 152L537 206L616 83Z" fill="#542c85" stroke="#542c85"></path><path d="M498 254L398 364L486 409Z" fill="#360e6b" stroke="#360e6b"></path><path d="M300 621L361 701L428 638Z" fill="#684097" stroke="#684097"></path><path d="M842 1080L1005 1080L852 1008Z" fill="#360e6b" stroke="#360e6b"></path><path d="M1067 1012L1179 1080L1154 992Z" fill="#2c0363" stroke="#2c0363"></path><path d="M1154 992L1179 1080L1266 959Z" fill="#401974" stroke="#401974"></path><path d="M1535 894L1483 757L1395 795Z" fill="#7c53a9" stroke="#7c53a9"></path><path d="M1395 795L1483 757L1448 596Z" fill="#401974" stroke="#401974"></path><path d="M398 364L378 438L486 409Z" fill="#7249a0" stroke="#7249a0"></path><path d="M1366 940L1397 891L1321 766Z" fill="#865db3" stroke="#865db3"></path><path d="M1005 1080L1062 1080L1067 1012Z" fill="#542c85" stroke="#542c85"></path><path d="M1266 959L1366 940L1321 766Z" fill="#401974" stroke="#401974"></path><path d="M745 1029L842 1080L852 1008Z" fill="#7c53a9" stroke="#7c53a9"></path><path d="M1625 509L1549 455L1503 495Z" fill="#865db3" stroke="#865db3"></path><path d="M1503 495L1549 455L1457 368Z" fill="#360e6b" stroke="#360e6b"></path><path d="M587 0L481 152L616 83Z" fill="#4a237d" stroke="#4a237d"></path><path d="M1361 973L1366 940L1266 959Z" fill="#542c85" stroke="#542c85"></path><path d="M1535 894L1570 762L1483 757Z" fill="#5e368e" stroke="#5e368e"></path><path d="M1422 199L1406 94L1336 105Z" fill="#865db3" stroke="#865db3"></path><path d="M1336 105L1380 0L1247 72Z" fill="#2c0363" stroke="#2c0363"></path><path d="M1493 153L1406 94L1422 199Z" fill="#401974" stroke="#401974"></path><path d="M480 933L574 969L543 887Z" fill="#7c53a9" stroke="#7c53a9"></path><path d="M543 887L574 969L653 889Z" fill="#4a237d" stroke="#4a237d"></path><path d="M745 1029L752 1080L842 1080Z" fill="#401974" stroke="#401974"></path><path d="M574 969L626 1014L653 889Z" fill="#360e6b" stroke="#360e6b"></path><path d="M1483 757L1565 591L1448 596Z" fill="#9067bc" stroke="#9067bc"></path><path d="M684 1080L752 1080L745 1029Z" fill="#684097" stroke="#684097"></path><path d="M400 767L497 709L428 638Z" fill="#542c85" stroke="#542c85"></path><path d="M400 767L437 827L497 709Z" fill="#7c53a9" stroke="#7c53a9"></path><path d="M361 701L400 767L428 638Z" fill="#684097" stroke="#684097"></path><path d="M1062 1080L1179 1080L1067 1012Z" fill="#401974" stroke="#401974"></path><path d="M1290 1080L1361 973L1266 959Z" fill="#684097" stroke="#684097"></path><path d="M1499 982L1535 894L1397 891Z" fill="#542c85" stroke="#542c85"></path><path d="M673 0L587 0L652 47Z" fill="#5e368e" stroke="#5e368e"></path><path d="M300 621L428 638L431 570Z" fill="#865db3" stroke="#865db3"></path><path d="M1605 461L1581 390L1549 455Z" fill="#9067bc" stroke="#9067bc"></path><path d="M1549 455L1581 390L1457 368Z" fill="#5e368e" stroke="#5e368e"></path><path d="M1581 390L1547 267L1457 368Z" fill="#684097" stroke="#684097"></path><path d="M1547 267L1493 153L1423 239Z" fill="#2c0363" stroke="#2c0363"></path><path d="M567 1080L684 1080L626 1014Z" fill="#7c53a9" stroke="#7c53a9"></path><path d="M626 1014L684 1080L745 1029Z" fill="#542c85" stroke="#542c85"></path><path d="M587 0L444 121L481 152Z" fill="#7c53a9" stroke="#7c53a9"></path><path d="M481 152L356 270L498 254Z" fill="#7249a0" stroke="#7249a0"></path><path d="M275 347L268 464L378 438Z" fill="#7c53a9" stroke="#7c53a9"></path><path d="M437 827L480 933L543 887Z" fill="#865db3" stroke="#865db3"></path><path d="M574 969L567 1080L626 1014Z" fill="#2c0363" stroke="#2c0363"></path><path d="M415 864L480 933L437 827Z" fill="#7249a0" stroke="#7249a0"></path><path d="M415 864L437 827L400 767Z" fill="#865db3" stroke="#865db3"></path><path d="M338 190L356 270L481 152Z" fill="#684097" stroke="#684097"></path><path d="M287 505L300 621L431 570Z" fill="#5e368e" stroke="#5e368e"></path><path d="M1625 509L1605 461L1549 455Z" fill="#684097" stroke="#684097"></path><path d="M1581 390L1621 281L1547 267Z" fill="#7c53a9" stroke="#7c53a9"></path><path d="M284 851L415 864L400 767Z" fill="#7c53a9" stroke="#7c53a9"></path><path d="M1478 0L1380 0L1406 94Z" fill="#684097" stroke="#684097"></path><path d="M1406 94L1380 0L1336 105Z" fill="#542c85" stroke="#542c85"></path><path d="M1483 757L1570 762L1565 591Z" fill="#7249a0" stroke="#7249a0"></path><path d="M1565 591L1625 509L1503 495Z" fill="#4a237d" stroke="#4a237d"></path><path d="M1582 764L1570 762L1604 886Z" fill="#7249a0" stroke="#7249a0"></path><path d="M1658 610L1625 509L1565 591Z" fill="#4a237d" stroke="#4a237d"></path><path d="M1605 461L1625 404L1581 390Z" fill="#401974" stroke="#401974"></path><path d="M1179 1080L1290 1080L1266 959Z" fill="#5e368e" stroke="#5e368e"></path><path d="M1597 765L1582 764L1604 886Z" fill="#684097" stroke="#684097"></path><path d="M287 505L431 570L378 438Z" fill="#9067bc" stroke="#9067bc"></path><path d="M361 701L284 851L400 767Z" fill="#7c53a9" stroke="#7c53a9"></path><path d="M268 464L287 505L378 438Z" fill="#9067bc" stroke="#9067bc"></path><path d="M1692 440L1625 404L1605 461Z" fill="#684097" stroke="#684097"></path><path d="M1658 192L1563 70L1493 153Z" fill="#684097" stroke="#684097"></path><path d="M1395 795L1397 891L1535 894Z" fill="#684097" stroke="#684097"></path><path d="M1570 762L1582 764L1565 591Z" fill="#2c0363" stroke="#2c0363"></path><path d="M300 621L308 688L361 701Z" fill="#542c85" stroke="#542c85"></path><path d="M1397 891L1366 940L1499 982Z" fill="#401974" stroke="#401974"></path><path d="M1582 764L1597 765L1565 591Z" fill="#360e6b" stroke="#360e6b"></path><path d="M275 347L378 438L398 364Z" fill="#5e368e" stroke="#5e368e"></path><path d="M287 505L207 570L300 621Z" fill="#2c0363" stroke="#2c0363"></path><path d="M300 621L211 685L308 688Z" fill="#5e368e" stroke="#5e368e"></path><path d="M444 121L338 190L481 152Z" fill="#360e6b" stroke="#360e6b"></path><path d="M356 270L275 347L398 364Z" fill="#7249a0" stroke="#7249a0"></path><path d="M395 68L338 190L444 121Z" fill="#684097" stroke="#684097"></path><path d="M1499 982L1366 940L1472 1020Z" fill="#7c53a9" stroke="#7c53a9"></path><path d="M1625 404L1621 281L1581 390Z" fill="#684097" stroke="#684097"></path><path d="M1493 153L1478 0L1406 94Z" fill="#4a237d" stroke="#4a237d"></path><path d="M435 979L574 969L480 933Z" fill="#7c53a9" stroke="#7c53a9"></path><path d="M435 979L567 1080L574 969Z" fill="#9067bc" stroke="#9067bc"></path><path d="M263 232L275 347L356 270Z" fill="#684097" stroke="#684097"></path><path d="M1597 765L1658 610L1565 591Z" fill="#865db3" stroke="#865db3"></path><path d="M1625 509L1692 440L1605 461Z" fill="#5e368e" stroke="#5e368e"></path><path d="M1625 404L1710 344L1621 281Z" fill="#7249a0" stroke="#7249a0"></path><path d="M415 864L435 979L480 933Z" fill="#542c85" stroke="#542c85"></path><path d="M371 1004L435 979L415 864Z" fill="#9067bc" stroke="#9067bc"></path><path d="M453 0L395 68L444 121Z" fill="#684097" stroke="#684097"></path><path d="M587 0L453 0L444 121Z" fill="#9067bc" stroke="#9067bc"></path><path d="M1290 1080L1379 1080L1361 973Z" fill="#360e6b" stroke="#360e6b"></path><path d="M1563 70L1478 0L1493 153Z" fill="#360e6b" stroke="#360e6b"></path><path d="M1472 1020L1366 940L1361 973Z" fill="#7249a0" stroke="#7249a0"></path><path d="M1535 894L1604 886L1570 762Z" fill="#7249a0" stroke="#7249a0"></path><path d="M1379 1080L1398 1080L1361 973Z" fill="#5e368e" stroke="#5e368e"></path><path d="M1398 1080L1472 1020L1361 973Z" fill="#542c85" stroke="#542c85"></path><path d="M1772 506L1692 440L1625 509Z" fill="#865db3" stroke="#865db3"></path><path d="M143 376L222 445L275 347Z" fill="#360e6b" stroke="#360e6b"></path><path d="M275 347L222 445L268 464Z" fill="#7249a0" stroke="#7249a0"></path><path d="M268 464L207 570L287 505Z" fill="#684097" stroke="#684097"></path><path d="M1658 192L1493 153L1547 267Z" fill="#684097" stroke="#684097"></path><path d="M1658 192L1547 267L1621 281Z" fill="#5e368e" stroke="#5e368e"></path><path d="M288 151L263 232L338 190Z" fill="#401974" stroke="#401974"></path><path d="M338 190L263 232L356 270Z" fill="#7249a0" stroke="#7249a0"></path><path d="M1631 973L1535 894L1499 982Z" fill="#7249a0" stroke="#7249a0"></path><path d="M1631 973L1604 886L1535 894Z" fill="#7249a0" stroke="#7249a0"></path><path d="M1597 765L1760 671L1658 610Z" fill="#401974" stroke="#401974"></path><path d="M1658 610L1772 506L1625 509Z" fill="#684097" stroke="#684097"></path><path d="M222 445L207 570L268 464Z" fill="#865db3" stroke="#865db3"></path><path d="M308 688L284 851L361 701Z" fill="#2c0363" stroke="#2c0363"></path><path d="M323 61L338 190L395 68Z" fill="#9067bc" stroke="#9067bc"></path><path d="M323 61L288 151L338 190Z" fill="#542c85" stroke="#542c85"></path><path d="M170 766L284 851L308 688Z" fill="#7c53a9" stroke="#7c53a9"></path><path d="M1753 266L1658 192L1621 281Z" fill="#542c85" stroke="#542c85"></path><path d="M1692 440L1710 344L1625 404Z" fill="#542c85" stroke="#542c85"></path><path d="M186 633L211 685L300 621Z" fill="#5e368e" stroke="#5e368e"></path><path d="M264 885L371 1004L415 864Z" fill="#5e368e" stroke="#5e368e"></path><path d="M435 979L442 1080L567 1080Z" fill="#2c0363" stroke="#2c0363"></path><path d="M357 0L323 61L395 68Z" fill="#9067bc" stroke="#9067bc"></path><path d="M424 1080L442 1080L435 979Z" fill="#4a237d" stroke="#4a237d"></path><path d="M1644 0L1556 0L1563 70Z" fill="#865db3" stroke="#865db3"></path><path d="M1563 70L1556 0L1478 0Z" fill="#542c85" stroke="#542c85"></path><path d="M1700 923L1660 845L1604 886Z" fill="#865db3" stroke="#865db3"></path><path d="M1604 886L1660 845L1597 765Z" fill="#542c85" stroke="#542c85"></path><path d="M1692 440L1799 453L1710 344Z" fill="#4a237d" stroke="#4a237d"></path><path d="M453 0L357 0L395 68Z" fill="#542c85" stroke="#542c85"></path><path d="M120 666L186 633L64 547Z" fill="#542c85" stroke="#542c85"></path><path d="M207 570L186 633L300 621Z" fill="#865db3" stroke="#865db3"></path><path d="M170 766L264 885L284 851Z" fill="#360e6b" stroke="#360e6b"></path><path d="M371 1004L424 1080L435 979Z" fill="#865db3" stroke="#865db3"></path><path d="M263 232L197 288L275 347Z" fill="#2c0363" stroke="#2c0363"></path><path d="M222 445L122 418L207 570Z" fill="#7c53a9" stroke="#7c53a9"></path><path d="M224 197L197 288L263 232Z" fill="#684097" stroke="#684097"></path><path d="M224 197L263 232L288 151Z" fill="#2c0363" stroke="#2c0363"></path><path d="M284 851L264 885L415 864Z" fill="#360e6b" stroke="#360e6b"></path><path d="M371 1004L305 1080L424 1080Z" fill="#9067bc" stroke="#9067bc"></path><path d="M170 766L308 688L211 685Z" fill="#401974" stroke="#401974"></path><path d="M227 86L288 151L323 61Z" fill="#360e6b" stroke="#360e6b"></path><path d="M227 86L224 197L288 151Z" fill="#5e368e" stroke="#5e368e"></path><path d="M1760 671L1772 506L1658 610Z" fill="#542c85" stroke="#542c85"></path><path d="M1703 108L1657 84L1658 192Z" fill="#401974" stroke="#401974"></path><path d="M1658 192L1657 84L1563 70Z" fill="#9067bc" stroke="#9067bc"></path><path d="M1753 266L1621 281L1710 344Z" fill="#2c0363" stroke="#2c0363"></path><path d="M1398 1080L1532 1080L1472 1020Z" fill="#542c85" stroke="#542c85"></path><path d="M1472 1020L1532 1080L1499 982Z" fill="#4a237d" stroke="#4a237d"></path><path d="M1767 672L1760 671L1798 737Z" fill="#865db3" stroke="#865db3"></path><path d="M1758 811L1760 671L1597 765Z" fill="#2c0363" stroke="#2c0363"></path><path d="M1532 1080L1631 973L1499 982Z" fill="#401974" stroke="#401974"></path><path d="M84 328L143 376L197 288Z" fill="#5e368e" stroke="#5e368e"></path><path d="M197 288L143 376L275 347Z" fill="#542c85" stroke="#542c85"></path><path d="M1758 811L1597 765L1660 845Z" fill="#7c53a9" stroke="#7c53a9"></path><path d="M1760 671L1849 617L1772 506Z" fill="#360e6b" stroke="#360e6b"></path><path d="M1783 313L1753 266L1710 344Z" fill="#401974" stroke="#401974"></path><path d="M120 666L170 766L211 685Z" fill="#865db3" stroke="#865db3"></path><path d="M120 666L211 685L186 633Z" fill="#360e6b" stroke="#360e6b"></path><path d="M84 328L122 418L143 376Z" fill="#2c0363" stroke="#2c0363"></path><path d="M143 376L122 418L222 445Z" fill="#2c0363" stroke="#2c0363"></path><path d="M1806 502L1799 453L1772 506Z" fill="#5e368e" stroke="#5e368e"></path><path d="M1772 506L1799 453L1692 440Z" fill="#7c53a9" stroke="#7c53a9"></path><path d="M240 0L227 86L323 61Z" fill="#401974" stroke="#401974"></path><path d="M54 273L84 328L197 288Z" fill="#401974" stroke="#401974"></path><path d="M1776 141L1703 108L1658 192Z" fill="#865db3" stroke="#865db3"></path><path d="M1657 84L1644 0L1563 70Z" fill="#865db3" stroke="#865db3"></path><path d="M1799 453L1783 313L1710 344Z" fill="#5e368e" stroke="#5e368e"></path><path d="M1753 266L1776 141L1658 192Z" fill="#401974" stroke="#401974"></path><path d="M1849 617L1806 502L1772 506Z" fill="#401974" stroke="#401974"></path><path d="M1799 453L1814 323L1783 313Z" fill="#684097" stroke="#684097"></path><path d="M1763 0L1644 0L1657 84Z" fill="#684097" stroke="#684097"></path><path d="M1683 967L1700 923L1631 973Z" fill="#4a237d" stroke="#4a237d"></path><path d="M1631 973L1700 923L1604 886Z" fill="#4a237d" stroke="#4a237d"></path><path d="M64 547L186 633L207 570Z" fill="#684097" stroke="#684097"></path><path d="M1700 923L1758 811L1660 845Z" fill="#542c85" stroke="#542c85"></path><path d="M1767 672L1849 617L1760 671Z" fill="#5e368e" stroke="#5e368e"></path><path d="M1716 1080L1683 967L1631 973Z" fill="#7249a0" stroke="#7249a0"></path><path d="M1700 923L1781 822L1758 811Z" fill="#360e6b" stroke="#360e6b"></path><path d="M1532 1080L1604 1080L1631 973Z" fill="#2c0363" stroke="#2c0363"></path><path d="M1781 822L1798 737L1758 811Z" fill="#7249a0" stroke="#7249a0"></path><path d="M1758 811L1798 737L1760 671Z" fill="#542c85" stroke="#542c85"></path><path d="M255 1021L264 885L153 948Z" fill="#360e6b" stroke="#360e6b"></path><path d="M255 1021L371 1004L264 885Z" fill="#4a237d" stroke="#4a237d"></path><path d="M255 1021L305 1080L371 1004Z" fill="#684097" stroke="#684097"></path><path d="M1783 313L1814 323L1753 266Z" fill="#5e368e" stroke="#5e368e"></path><path d="M1920 374L1814 323L1799 453Z" fill="#2c0363" stroke="#2c0363"></path><path d="M1920 487L1799 453L1806 502Z" fill="#360e6b" stroke="#360e6b"></path><path d="M153 948L264 885L110 910Z" fill="#4a237d" stroke="#4a237d"></path><path d="M357 0L240 0L323 61Z" fill="#7c53a9" stroke="#7c53a9"></path><path d="M82 183L197 288L224 197Z" fill="#2c0363" stroke="#2c0363"></path><path d="M1865 941L1781 822L1700 923Z" fill="#542c85" stroke="#542c85"></path><path d="M82 183L224 197L109 103Z" fill="#684097" stroke="#684097"></path><path d="M122 418L64 547L207 570Z" fill="#401974" stroke="#401974"></path><path d="M1792 145L1776 141L1753 266Z" fill="#401974" stroke="#401974"></path><path d="M1703 108L1763 0L1657 84Z" fill="#360e6b" stroke="#360e6b"></path><path d="M0 458L64 547L122 418Z" fill="#865db3" stroke="#865db3"></path><path d="M120 666L95 755L170 766Z" fill="#865db3" stroke="#865db3"></path><path d="M1920 540L1849 617L1920 678Z" fill="#2c0363" stroke="#2c0363"></path><path d="M1798 737L1849 617L1767 672Z" fill="#542c85" stroke="#542c85"></path><path d="M82 762L95 755L0 729Z" fill="#542c85" stroke="#542c85"></path><path d="M1920 281L1792 145L1753 266Z" fill="#5e368e" stroke="#5e368e"></path><path d="M1776 141L1810 92L1703 108Z" fill="#7249a0" stroke="#7249a0"></path><path d="M0 729L95 755L120 666Z" fill="#5e368e" stroke="#5e368e"></path><path d="M95 755L82 762L170 766Z" fill="#401974" stroke="#401974"></path><path d="M110 910L264 885L170 766Z" fill="#684097" stroke="#684097"></path><path d="M255 1021L202 1080L305 1080Z" fill="#684097" stroke="#684097"></path><path d="M109 103L224 197L227 86Z" fill="#2c0363" stroke="#2c0363"></path><path d="M0 383L0 458L122 418Z" fill="#9067bc" stroke="#9067bc"></path><path d="M82 183L54 273L197 288Z" fill="#5e368e" stroke="#5e368e"></path><path d="M142 0L109 103L227 86Z" fill="#542c85" stroke="#542c85"></path><path d="M82 762L110 910L170 766Z" fill="#4a237d" stroke="#4a237d"></path><path d="M1920 281L1753 266L1814 323Z" fill="#684097" stroke="#684097"></path><path d="M1920 158L1810 92L1792 145Z" fill="#865db3" stroke="#865db3"></path><path d="M1792 145L1810 92L1776 141Z" fill="#542c85" stroke="#542c85"></path><path d="M1810 92L1763 0L1703 108Z" fill="#542c85" stroke="#542c85"></path><path d="M142 996L255 1021L153 948Z" fill="#2c0363" stroke="#2c0363"></path><path d="M142 996L202 1080L255 1021Z" fill="#2c0363" stroke="#2c0363"></path><path d="M1604 1080L1716 1080L1631 973Z" fill="#5e368e" stroke="#5e368e"></path><path d="M1857 958L1865 941L1700 923Z" fill="#7c53a9" stroke="#7c53a9"></path><path d="M1920 540L1806 502L1849 617Z" fill="#401974" stroke="#401974"></path><path d="M110 910L142 996L153 948Z" fill="#7c53a9" stroke="#7c53a9"></path><path d="M240 0L142 0L227 86Z" fill="#360e6b" stroke="#360e6b"></path><path d="M0 275L54 273L0 228Z" fill="#7c53a9" stroke="#7c53a9"></path><path d="M0 383L122 418L84 328Z" fill="#2c0363" stroke="#2c0363"></path><path d="M64 547L0 647L120 666Z" fill="#4a237d" stroke="#4a237d"></path><path d="M82 762L0 768L110 910Z" fill="#360e6b" stroke="#360e6b"></path><path d="M1849 617L1798 737L1920 678Z" fill="#5e368e" stroke="#5e368e"></path><path d="M1920 540L1920 487L1806 502Z" fill="#9067bc" stroke="#9067bc"></path><path d="M1920 678L1798 737L1920 726Z" fill="#4a237d" stroke="#4a237d"></path><path d="M0 458L0 583L64 547Z" fill="#2c0363" stroke="#2c0363"></path><path d="M0 275L0 383L84 328Z" fill="#684097" stroke="#684097"></path><path d="M0 275L84 328L54 273Z" fill="#2c0363" stroke="#2c0363"></path><path d="M54 273L82 183L0 228Z" fill="#9067bc" stroke="#9067bc"></path><path d="M1810 92L1786 0L1763 0Z" fill="#2c0363" stroke="#2c0363"></path><path d="M1920 0L1786 0L1810 92Z" fill="#684097" stroke="#684097"></path><path d="M1920 487L1920 374L1799 453Z" fill="#5e368e" stroke="#5e368e"></path><path d="M0 583L0 647L64 547Z" fill="#401974" stroke="#401974"></path><path d="M70 1013L118 1080L142 996Z" fill="#7249a0" stroke="#7249a0"></path><path d="M1920 726L1798 737L1920 786Z" fill="#684097" stroke="#684097"></path><path d="M0 228L82 183L0 133Z" fill="#7c53a9" stroke="#7c53a9"></path><path d="M0 647L0 729L120 666Z" fill="#9067bc" stroke="#9067bc"></path><path d="M142 0L110 0L109 103Z" fill="#401974" stroke="#401974"></path><path d="M1920 374L1920 281L1814 323Z" fill="#2c0363" stroke="#2c0363"></path><path d="M1920 786L1798 737L1781 822Z" fill="#684097" stroke="#684097"></path><path d="M0 729L0 768L82 762Z" fill="#4a237d" stroke="#4a237d"></path><path d="M0 133L82 183L109 103Z" fill="#401974" stroke="#401974"></path><path d="M1920 877L1920 786L1781 822Z" fill="#401974" stroke="#401974"></path><path d="M1857 958L1700 923L1683 967Z" fill="#9067bc" stroke="#9067bc"></path><path d="M1716 1080L1857 958L1683 967Z" fill="#360e6b" stroke="#360e6b"></path><path d="M70 1013L142 996L110 910Z" fill="#9067bc" stroke="#9067bc"></path><path d="M142 996L118 1080L202 1080Z" fill="#5e368e" stroke="#5e368e"></path><path d="M1920 281L1920 158L1792 145Z" fill="#7c53a9" stroke="#7c53a9"></path><path d="M0 960L70 1013L110 910Z" fill="#360e6b" stroke="#360e6b"></path><path d="M0 0L0 133L109 103Z" fill="#7249a0" stroke="#7249a0"></path><path d="M1920 1008L1920 877L1865 941Z" fill="#7249a0" stroke="#7249a0"></path><path d="M1865 941L1920 877L1781 822Z" fill="#360e6b" stroke="#360e6b"></path><path d="M1920 158L1920 75L1810 92Z" fill="#684097" stroke="#684097"></path><path d="M0 768L0 941L110 910Z" fill="#7249a0" stroke="#7249a0"></path><path d="M70 1013L0 1080L118 1080Z" fill="#7c53a9" stroke="#7c53a9"></path><path d="M0 941L0 960L110 910Z" fill="#865db3" stroke="#865db3"></path><path d="M1716 1080L1861 1080L1857 958Z" fill="#542c85" stroke="#542c85"></path><path d="M1857 958L1920 1008L1865 941Z" fill="#2c0363" stroke="#2c0363"></path><path d="M110 0L0 0L109 103Z" fill="#7249a0" stroke="#7249a0"></path><path d="M1920 75L1920 0L1810 92Z" fill="#7c53a9" stroke="#7c53a9"></path><path d="M1861 1080L1920 1008L1857 958Z" fill="#360e6b" stroke="#360e6b"></path><path d="M0 960L0 1080L70 1013Z" fill="#2c0363" stroke="#2c0363"></path><path d="M1861 1080L1920 1080L1920 1008Z" fill="#5e368e" stroke="#5e368e"></path></g></svg>